<svg xmlns="http://www.w3.org/2000/svg" width="34.95" height="35" viewBox="0 0 34.95 35">
  <defs>
    <style>
      .cls-1 {
        fill: #ffc700;
      }
    </style>
  </defs>
  <title>Asset 5</title>
  <g id="Layer_2" data-name="Layer 2">
    <g id="Layer_3" data-name="Layer 3">
      <path class="cls-1" d="M34.13,19.67,15.28.87A3,3,0,0,0,13.17,0h-.33L3.63.92A3.05,3.05,0,0,0,.92,3.63L0,12.84v.33a3.29,3.29,0,0,0,.92,2.11l18.85,18.8a2.83,2.83,0,0,0,2.11.92A3,3,0,0,0,24,34.08L34.08,24a3,3,0,0,0,.87-2.11A3.73,3.73,0,0,0,34.13,19.67ZM8.94,8.85A2.71,2.71,0,0,1,4.36,6.93,2.92,2.92,0,0,1,5.11,5,2.77,2.77,0,0,1,7,4.27,3.08,3.08,0,0,1,8.87,5a2.81,2.81,0,0,1,.82,1.91A2.94,2.94,0,0,1,8.94,8.85Z"/>
    </g>
  </g>
</svg>
