<svg xmlns="http://www.w3.org/2000/svg" width="35.43" height="33.9" viewBox="0 0 35.43 33.9">
  <defs>
    <style>
      .cls-1 {
        fill: #006989;
      }
    </style>
  </defs>
  <title>Asset 7</title>
  <g id="Layer_2" data-name="Layer 2">
    <g id="Layer_2-2" data-name="Layer 2">
      <path class="cls-1" d="M34.25,25.78H1.18A1.18,1.18,0,0,0,0,27v5.76A1.18,1.18,0,0,0,1.18,33.9H34.25a1.18,1.18,0,0,0,1.18-1.18V27A1.18,1.18,0,0,0,34.25,25.78ZM2.49,31.38A1.53,1.53,0,1,1,4,29.84,1.53,1.53,0,0,1,2.49,31.38Zm4.35,0a1.53,1.53,0,1,1,1.54-1.53A1.53,1.53,0,0,1,6.84,31.38Zm4.35,0a1.53,1.53,0,1,1,1.53-1.53A1.53,1.53,0,0,1,11.19,31.38Zm4.35,0a1.53,1.53,0,1,1,1.53-1.53A1.53,1.53,0,0,1,15.54,31.38Zm4.35,0a1.53,1.53,0,1,1,1.54-1.53A1.53,1.53,0,0,1,19.89,31.38Zm4.35,0a1.53,1.53,0,1,1,1.54-1.53A1.53,1.53,0,0,1,24.24,31.38Zm4.35,0a1.53,1.53,0,1,1,1.53-1.53A1.53,1.53,0,0,1,28.59,31.38Zm4.35,0a1.53,1.53,0,1,1,1.53-1.53A1.53,1.53,0,0,1,32.93,31.38ZM12.31,19.65a.89.89,0,0,0,.6-.24l5-4.66a5.59,5.59,0,0,0,2,.36h0A5.63,5.63,0,0,0,25.18,7.5a.89.89,0,0,0-1.46-.31L21.09,9.82,19.71,8.44,22.34,5.8A.89.89,0,0,0,22,4.34a5.62,5.62,0,0,0-7.25,7.24l-4.66,5a.89.89,0,0,0,0,1.23l1.54,1.54A.89.89,0,0,0,12.31,19.65Zm4.18-7.29a.89.89,0,0,0,.14-1,3.84,3.84,0,0,1,3.26-5.58L18.31,7.32a1.58,1.58,0,0,0,0,2.23L20,11.22a1.58,1.58,0,0,0,2.23,0l1.56-1.56a3.86,3.86,0,0,1-3.84,3.68,3.76,3.76,0,0,1-1.74-.43.89.89,0,0,0-1,.14l-4.84,4.48L12,17.2Zm1.23,12.45a12.4,12.4,0,1,0-12.4-12.4A12.42,12.42,0,0,0,17.71,24.81Zm0-23A10.63,10.63,0,1,1,7.09,12.41,10.64,10.64,0,0,1,17.71,1.78Z"/>
    </g>
  </g>
</svg>
