<svg xmlns="http://www.w3.org/2000/svg" width="50" height="46.23" viewBox="0 0 50 46.23">
  <defs>
    <style>
      .cls-1 {
        fill: #006989;
      }
    </style>
  </defs>
  <title>Asset 8</title>
  <g id="Layer_2" data-name="Layer 2">
    <g id="Layer_9" data-name="Layer 9">
      <g>
        <path class="cls-1" d="M49.9,19.52a1.06,1.06,0,0,0-1-.6H45.84a23.1,23.1,0,1,0-2.71,15.76,2.1,2.1,0,1,0-3.64-2.1,18.93,18.93,0,1,1,2-13.66H38.44a1.05,1.05,0,0,0-1,.61,1,1,0,0,0,.15,1.12l5.25,6.31a1.05,1.05,0,0,0,1.61,0l5.26-6.31a1.05,1.05,0,0,0,.14-1.12Zm0,0"/>
        <path class="cls-1" d="M23.11,5.25A2.1,2.1,0,0,0,21,7.35V20.1a3.67,3.67,0,0,0,2.1,6.69,3.6,3.6,0,0,0,1.55-.35L32,30.65a2.08,2.08,0,0,0,1,.29A2.1,2.1,0,0,0,34.08,27l-7.32-4.22a3.67,3.67,0,0,0-1.54-2.69V7.35a2.1,2.1,0,0,0-2.1-2.1Zm0,19.44a1.58,1.58,0,1,1,1.58-1.58,1.58,1.58,0,0,1-1.58,1.58Zm0,0"/>
      </g>
    </g>
  </g>
</svg>
