<svg xmlns="http://www.w3.org/2000/svg" width="51" height="51" viewBox="0 0 51 51">
  <defs>
    <style>
      .cls-1 {
        fill: #006989;
        stroke: #006989;
        stroke-miterlimit: 10;
      }
    </style>
  </defs>
  <title>Asset 7</title>
  <g id="Layer_2" data-name="Layer 2">
    <g id="Layer_9" data-name="Layer 9">
      <g>
        <path class="cls-1" d="M25.5.5a25,25,0,1,0,25,25,25,25,0,0,0-25-25Zm0,46.71A21.71,21.71,0,1,1,47.21,25.5,21.73,21.73,0,0,1,25.5,47.21Zm0,0"/>
        <path class="cls-1" d="M27.15,24V14.68a4.73,4.73,0,0,1,2.31,1.84,1.64,1.64,0,1,0,2.75-1.81,8,8,0,0,0-5.05-3.44V8.66a1.65,1.65,0,0,0-3.29,0v2.61a8,8,0,0,0,0,15.71v9.34a4.73,4.73,0,0,1-2.31-1.84,1.64,1.64,0,0,0-2.75,1.81,8,8,0,0,0,5.05,3.44v2.61a1.65,1.65,0,1,0,3.29,0V39.73a8,8,0,0,0,0-15.71Zm-6.38-4.9a4.74,4.74,0,0,1,3.09-4.44v8.87a4.74,4.74,0,0,1-3.09-4.43Zm6.38,17.19V27.44a4.73,4.73,0,0,1,0,8.87Zm0,0"/>
      </g>
    </g>
  </g>
</svg>
