<svg xmlns="http://www.w3.org/2000/svg" width="35" height="26.25" viewBox="0 0 35 26.25">
  <defs>
    <style>
      .cls-1 {
        fill: #ffc700;
      }
    </style>
  </defs>
  <title>Asset 3</title>
  <g id="Layer_2" data-name="Layer 2">
    <g id="Layer_2-2" data-name="Layer 2">
      <path class="cls-1" d="M35,21.87a4.33,4.33,0,0,1-.56,2.1L23.39,11.61,34.32,2.05A4.34,4.34,0,0,1,35,4.37Zm-17.5-8L32.71.55A4.32,4.32,0,0,0,30.62,0H4.37A4.3,4.3,0,0,0,2.29.55Zm4.24-.81-3.52,3.08a1.1,1.1,0,0,1-1.44,0l-3.52-3.08L2.07,25.58a4.32,4.32,0,0,0,2.31.67H30.62a4.32,4.32,0,0,0,2.31-.67ZM.68,2.05A4.34,4.34,0,0,0,0,4.37v17.5A4.32,4.32,0,0,0,.56,24l11-12.37Zm0,0"/>
    </g>
  </g>
</svg>
