<svg xmlns="http://www.w3.org/2000/svg" width="143" height="143" viewBox="0 0 143 143">
  <defs>
    <style>
      .cls-1 {
        fill: none;
        stroke: #fff;
        stroke-miterlimit: 10;
        stroke-width: 2px;
      }

      .cls-2 {
        fill: #fff;
      }
    </style>
  </defs>
  <title>Asset 9</title>
  <g id="Layer_2" data-name="Layer 2">
    <g id="Layer_3" data-name="Layer 3">
      <g>
        <path class="cls-1" d="M71.5,1A70.5,70.5,0,1,1,1,71.5,70.71,70.71,0,0,1,71.5,1Zm0,0"/>
        <path class="cls-2" d="M107.19,59.6v7.93h7.93v7.93h-7.93V83.4H99.26V75.47H91.33V67.53h7.93V59.6Zm0,0"/>
        <path class="cls-2" d="M35.81,91.33c-10.58-10.58-10.58-29.08.44-39.66,7.93-7.93,19.39-9.69,29.52-5.73l4,2.21,4.41,3.08-7.05,7.05-2.64-1.76c-6.17-4-15-3.08-20.71,2.64-6.61,6.61-7.05,18.51,0,25.56,6.61,7,18.51,7,24.68,0a14.06,14.06,0,0,0,4-7v-.88H56.52V68H81.63l.44,2.2v6.17c-.44,5.73-2.64,11.46-6.61,15.42-10.58,10.13-29.08,10.13-39.66-.44Zm0,0"/>
      </g>
    </g>
  </g>
</svg>
