<svg xmlns="http://www.w3.org/2000/svg" width="40" height="40" viewBox="0 0 40 40">
  <defs>
    <style>
      .cls-1 {
        fill: #ffc700;
      }
    </style>
  </defs>
  <title>Asset 22</title>
  <g id="Layer_2" data-name="Layer 2">
    <g id="Layer_3" data-name="Layer 3">
      <g>
        <path class="cls-1" d="M13.81,18.44H4.63A4.63,4.63,0,0,1,0,13.81V4.63A4.63,4.63,0,0,1,4.63,0h9.19a4.63,4.63,0,0,1,4.63,4.63v9.19A4.63,4.63,0,0,1,13.81,18.44ZM4.63,3.13a1.5,1.5,0,0,0-1.5,1.5v9.19a1.5,1.5,0,0,0,1.5,1.5h9.19a1.5,1.5,0,0,0,1.5-1.5V4.63a1.5,1.5,0,0,0-1.5-1.5Z"/>
        <path class="cls-1" d="M35.31,18.44H26.25a4.69,4.69,0,0,1-4.69-4.69V4.69A4.69,4.69,0,0,1,26.25,0h9.06A4.69,4.69,0,0,1,40,4.69v9.06A4.69,4.69,0,0,1,35.31,18.44ZM26.25,3.13a1.56,1.56,0,0,0-1.56,1.56v9.06a1.56,1.56,0,0,0,1.56,1.56h9.06a1.56,1.56,0,0,0,1.56-1.56V4.69a1.56,1.56,0,0,0-1.56-1.56Z"/>
        <path class="cls-1" d="M13.81,40H4.63A4.63,4.63,0,0,1,0,35.37V26.19a4.63,4.63,0,0,1,4.63-4.63h9.19a4.63,4.63,0,0,1,4.63,4.63v9.19A4.63,4.63,0,0,1,13.81,40ZM4.63,24.69a1.5,1.5,0,0,0-1.5,1.5v9.19a1.5,1.5,0,0,0,1.5,1.5h9.19a1.5,1.5,0,0,0,1.5-1.5V26.19a1.5,1.5,0,0,0-1.5-1.5Z"/>
        <path class="cls-1" d="M35.31,40H26.25a4.69,4.69,0,0,1-4.69-4.69V26.25a4.69,4.69,0,0,1,4.69-4.69h9.06A4.69,4.69,0,0,1,40,26.25v9.06A4.69,4.69,0,0,1,35.31,40ZM26.25,24.69a1.56,1.56,0,0,0-1.56,1.56v9.06a1.56,1.56,0,0,0,1.56,1.56h9.06a1.56,1.56,0,0,0,1.56-1.56V26.25a1.56,1.56,0,0,0-1.56-1.56Z"/>
      </g>
    </g>
  </g>
</svg>
