<svg xmlns="http://www.w3.org/2000/svg" width="25.24" height="35" viewBox="0 0 25.24 35">
  <defs>
    <style>
      .cls-1 {
        fill: #ffc700;
      }
    </style>
  </defs>
  <title>Asset 4</title>
  <g id="Layer_2" data-name="Layer 2">
    <g id="Layer_3" data-name="Layer 3">
      <path class="cls-1" d="M23,5.36A12.44,12.44,0,0,0,12.61,0,12.42,12.42,0,0,0,2.21,5.48,12.54,12.54,0,0,0,.84,17.09a8.89,8.89,0,0,0,.74,1.44l9.66,15.69a1.59,1.59,0,0,0,2.74,0l9.69-15.8a11.82,11.82,0,0,0,.78-1.52A12.5,12.5,0,0,0,23,5.36ZM12.61,17.2a5.62,5.62,0,1,1,5.62-5.62A5.62,5.62,0,0,1,12.61,17.2Z"/>
    </g>
  </g>
</svg>
