<svg xmlns="http://www.w3.org/2000/svg" width="26.25" height="35" viewBox="0 0 26.25 35">
  <defs>
    <style>
      .cls-1 {
        fill: #ffc700;
      }
    </style>
  </defs>
  <title>Asset 4</title>
  <g id="Layer_2" data-name="Layer 2">
    <g id="Layer_2-2" data-name="Layer 2">
      <path class="cls-1" d="M25.52,13.13H23.33V10.21a10.21,10.21,0,0,0-20.42,0v2.92H.73a.73.73,0,0,0-.73.73V32.08A2.92,2.92,0,0,0,2.92,35H23.33a2.92,2.92,0,0,0,2.92-2.92V13.85A.73.73,0,0,0,25.52,13.13ZM14.85,24.22l.46,4.14a.73.73,0,0,1-.72.81H11.67a.73.73,0,0,1-.72-.81l.46-4.14a2.88,2.88,0,0,1-1.19-2.35,2.92,2.92,0,0,1,5.83,0A2.88,2.88,0,0,1,14.85,24.22ZM19,13.13H7.29V10.21a5.83,5.83,0,0,1,11.67,0Z"/>
    </g>
  </g>
</svg>
