<svg xmlns="http://www.w3.org/2000/svg" width="80" height="75.03" viewBox="0 0 80 75.03">
  <defs>
    <style>
      .cls-1 {
        fill: #ffc700;
      }
    </style>
  </defs>
  <title>Asset 20</title>
  <g id="Layer_2" data-name="Layer 2">
    <g id="Layer_7" data-name="Layer 7">
      <g>
        <path class="cls-1" d="M80,73.13A3,3,0,0,1,76.78,75c-3-.07-6,0-9,0A2.52,2.52,0,0,1,65,72.21Q65,53,65,33.73a2.52,2.52,0,0,1,2.81-2.79c3,0,6,.05,9,0A3,3,0,0,1,80,32.82Z"/>
        <path class="cls-1" d="M80,18a6.52,6.52,0,0,1-1.1,1.47A2.46,2.46,0,0,1,75,17.61c-.27-2.35-.53-4.7-1-7.2a3.24,3.24,0,0,1-.18.39c-8.34,13-19.67,22.62-33.31,29.66A94.53,94.53,0,0,1,17,49.13,60.26,60.26,0,0,1,3.81,50.6a10.79,10.79,0,0,1-1.87-.15A2.68,2.68,0,0,1,0,48.6V47.35c.68-1.47,1.81-1.86,3.41-1.81a48.16,48.16,0,0,0,12.92-1.45C33.85,39.9,49.13,31.71,61.57,18.51a70,70,0,0,0,8.4-11c.15-.24.28-.49.49-.85-.29.06-.48.08-.67.13-2.6.74-5.19,1.5-7.8,2.21a2.47,2.47,0,0,1-3.25-2.78,2.33,2.33,0,0,1,1.76-2Q67.84,2.16,75.2.09a2.44,2.44,0,0,1,3.09,2.16c.53,4.57,1,9.15,1.57,13.73a4.21,4.21,0,0,0,.15.59Z"/>
        <path class="cls-1" d="M0,60a3,3,0,0,1,3.21-1.9c3,.08,6,0,9,0A2.52,2.52,0,0,1,15,60.91q0,5.65,0,11.31A2.53,2.53,0,0,1,12.19,75c-3,0-6-.05-9,0A3,3,0,0,1,0,73.13Q0,66.57,0,60Z"/>
        <path class="cls-1" d="M58.32,60.32q0,5.86,0,11.72c0,2-.91,3-2.94,3H46.16a2.55,2.55,0,0,1-2.84-2.85q0-11.87,0-23.75a2.54,2.54,0,0,1,2.76-2.77h9.37c1.92,0,2.86,1,2.86,2.89q0,5.9,0,11.8Z"/>
        <path class="cls-1" d="M21.68,64.91c0-2.42,0-4.84,0-7.26a2.52,2.52,0,0,1,2.77-2.76h9.29a2.6,2.6,0,0,1,2.94,2.93q0,7.1,0,14.21c0,2-.94,3-2.95,3H24.44a2.5,2.5,0,0,1-2.76-2.75C21.67,69.8,21.68,67.36,21.68,64.91Z"/>
      </g>
    </g>
  </g>
</svg>
