<svg xmlns="http://www.w3.org/2000/svg" width="80" height="56" viewBox="0 0 80 56">
  <defs>
    <style>
      .cls-1 {
        fill: #fff;
      }
    </style>
  </defs>
  <title>Asset 23</title>
  <g id="Layer_2" data-name="Layer 2">
    <g id="Layer_7" data-name="Layer 7">
      <path class="cls-1" d="M10.22,52,24.44,41.33V56H4a4,4,0,0,1-4-4V41.33H17L7.56,48.45ZM23.17,35.48c.46-2.24.47-6.54-4.09-11.1-3.25-3.25-9.17-7.13-11.49-4.44S9.88,29.28,12,31.43C14.86,34.25,18.8,36.4,23.17,35.48ZM0,4V36.89H11.6a22.36,22.36,0,0,1-2.71-2.32c-5-5-8.89-13.33-4.44-17.78,1.47-1.48,8.08-6.46,20,7V0H4A4,4,0,0,0,0,4ZM45.78,48.45,43.11,52,28.89,41.33V56H76a4,4,0,0,0,4-4V41.33H36.29Zm-4.48-17c2.15-2.15,6.95-9.28,4.45-11.49-2.2-2.5-8.24,1.19-11.49,4.44-4.56,4.57-4.54,8.88-4.09,11.09C34.8,36.26,38.48,34.25,41.3,31.43ZM76,0H28.89V23.81c12.11-13.54,18.53-8.49,20-7,4.44,4.44.55,12.78-4.44,17.78a22.22,22.22,0,0,1-2.71,2.32H80V4A4,4,0,0,0,76,0Z"/>
    </g>
  </g>
</svg>
