<svg xmlns="http://www.w3.org/2000/svg" width="74.67" height="80" viewBox="0 0 74.67 80">
  <defs>
    <style>
      .cls-1 {
        fill: #ffc700;
      }
    </style>
  </defs>
  <title>Asset 24</title>
  <g id="Layer_2" data-name="Layer 2">
    <g id="Layer_7" data-name="Layer 7">
      <g>
        <circle class="cls-1" cx="43.21" cy="22.54" r="5.13"/>
        <path class="cls-1" d="M63.57,18.56,60.19,18a17.87,17.87,0,0,0-1.75-4.2l2-2.81a2.6,2.6,0,0,0-.22-3.33l-2.06-2A2.59,2.59,0,0,0,54.8,5.3L52,7.27a17.87,17.87,0,0,0-4.2-1.75l-.6-3.38A2.59,2.59,0,0,0,44.68,0H41.77a2.6,2.6,0,0,0-2.56,2.15l-.6,3.38a17.51,17.51,0,0,0-4.2,1.74l-2.8-2a2.59,2.59,0,0,0-3.33.29l-2,2A2.6,2.6,0,0,0,26,10.95l2,2.81A17.56,17.56,0,0,0,26.19,18l-3.38.6a2.6,2.6,0,0,0-2.15,2.56V24a2.59,2.59,0,0,0,2.16,2.56l3.38.6a17.88,17.88,0,0,0,1.75,4.2l-2,2.81a2.6,2.6,0,0,0,.29,3.33l2,2a2.6,2.6,0,0,0,3.33.29l2.81-2a17.88,17.88,0,0,0,4.2,1.75l.6,3.38a2.6,2.6,0,0,0,2.56,2.15h2.9a2.6,2.6,0,0,0,2.56-2.15l.6-3.38A17.68,17.68,0,0,0,52,37.81l2.81,2a2.6,2.6,0,0,0,3.33-.29l2-2a2.6,2.6,0,0,0,.29-3.33l-2-2.81a17.44,17.44,0,0,0,1.71-4.2l3.38-.6A2.6,2.6,0,0,0,65.71,24V21.11A2.6,2.6,0,0,0,63.57,18.56ZM43.18,32.18a9.64,9.64,0,0,1,0-19.28h0a9.64,9.64,0,0,1,0,19.28Z"/>
        <circle class="cls-1" cx="43.21" cy="22.54" r="5.13"/>
        <path class="cls-1" d="M16.19,80,0,64.23,11.59,52.71a17.67,17.67,0,0,1,18.3-4.14l2.54.89H48.11A4.9,4.9,0,0,1,53,54.36q0,.1,0,.19a5.07,5.07,0,0,1-5.14,4.78H38.49a1.92,1.92,0,0,0,0,3.84h9.4a9,9,0,0,0,9-8.47v-.12l8.7-9.8a5.27,5.27,0,0,1,7.23-.69,5.13,5.13,0,0,1,.71,7.22l-.11.13L56,71.29a12.19,12.19,0,0,1-9.18,4.18H20.72Z"/>
        <circle class="cls-1" cx="43.21" cy="22.54" r="5.13"/>
      </g>
    </g>
  </g>
</svg>
