<svg xmlns="http://www.w3.org/2000/svg" width="35" height="34.92" viewBox="0 0 35 34.92">
  <defs>
    <style>
      .cls-1 {
        fill: #ffc700;
      }
    </style>
  </defs>
  <title>Asset 6</title>
  <g id="Layer_2" data-name="Layer 2">
    <g id="Layer_3" data-name="Layer 3">
      <path class="cls-1" d="M34.21,27.62l-5.4-5.41a2.82,2.82,0,0,0-4,.08L22.11,25l-.54-.3A27.15,27.15,0,0,1,15,20a27.2,27.2,0,0,1-4.75-6.56L10,12.89l1.83-1.82.9-.9a2.81,2.81,0,0,0,.07-4L7.38.78a2.81,2.81,0,0,0-4,.07L1.88,2.39l0,0A8.83,8.83,0,0,0,.67,4.65,9.1,9.1,0,0,0,.11,6.89c-.72,5.92,2,11.32,9.33,18.66,10.14,10.14,18.32,9.38,18.67,9.34a9.12,9.12,0,0,0,2.25-.56,8.72,8.72,0,0,0,2.2-1.25l0,0,1.55-1.51a2.82,2.82,0,0,0,.07-4Zm0,0"/>
    </g>
  </g>
</svg>
