<svg xmlns="http://www.w3.org/2000/svg" width="31.38" height="34" viewBox="0 0 31.38 34">
  <defs>
    <style>
      .cls-1 {
        fill: #006989;
      }
    </style>
  </defs>
  <title>Asset 9</title>
  <g id="Layer_2" data-name="Layer 2">
    <g id="Layer_2-2" data-name="Layer 2">
      <g>
        <path class="cls-1" d="M5.16,6.39a.66.66,0,0,0,.66-.66V5.19h.89V7.75H6.46a.66.66,0,0,0,0,1.33H8.29a.66.66,0,1,0,0-1.33H8V5.19h.89v.53a.66.66,0,1,0,1.33,0V4.53a.66.66,0,0,0-.66-.66H5.16a.66.66,0,0,0-.66.66v1.2a.66.66,0,0,0,.66.66Zm0,0"/>
        <path class="cls-1" d="M13,5.19h8.51a.66.66,0,0,0,0-1.33H13a.66.66,0,0,0,0,1.33Zm0,0"/>
        <path class="cls-1" d="M13,8.87h8.51a.66.66,0,0,0,0-1.33H13a.66.66,0,1,0,0,1.33Zm0,0"/>
        <path class="cls-1" d="M21.51,11.22H5.19a.66.66,0,1,0,0,1.33H21.51a.66.66,0,1,0,0-1.33Zm0,0"/>
        <path class="cls-1" d="M19.87,14.89H5.21a.66.66,0,0,0,0,1.33H19.87a.66.66,0,1,0,0-1.33Zm0,0"/>
        <path class="cls-1" d="M18.49,18.57H5.23a.66.66,0,1,0,0,1.33H18.49a.66.66,0,0,0,0-1.33Zm0,0"/>
        <path class="cls-1" d="M18.42,22.69H11.75a.66.66,0,0,0,0,1.33h6v5.11H5.82V24H6.4a.66.66,0,1,0,0-1.33H5.16a.66.66,0,0,0-.66.66v6.44a.66.66,0,0,0,.66.66H18.42a.66.66,0,0,0,.66-.66V23.35a.66.66,0,0,0-.66-.66Zm0,0"/>
        <path class="cls-1" d="M28.53,25.35v-1a5.08,5.08,0,0,0-1.66-9.62V.66A.66.66,0,0,0,26.21,0H.66A.66.66,0,0,0,0,.66V33.34A.66.66,0,0,0,.66,34H26.94a.66.66,0,0,0,.66-.66V31.78l.75-.72a.66.66,0,0,0,0-1l-.74-.69V29l1.17-1a.66.66,0,0,0,0-1l-.88-.81.39-.36a.66.66,0,0,0,.21-.49Zm1.53-5.53a3.75,3.75,0,1,1-4.14-3.73l.39,0a3.76,3.76,0,0,1,3.76,3.76ZM1.33,32.67V1.33H25.54V14.79l-.52.11a5.09,5.09,0,0,0-1,9.45V32a.66.66,0,0,0,.09.34l.2.34Zm25.19-4.49a.66.66,0,0,0-.24.51v1a.66.66,0,0,0,.21.49l.44.41-.45.43a.66.66,0,0,0-.2.48v1.17h-.46l-.16-.27-.35-.6v-7a5.07,5.07,0,0,0,.72.09,5.16,5.16,0,0,0,1.17-.07v.24l-.71.65a.66.66,0,0,0,0,1l.86.79Zm0,0"/>
        <path class="cls-1" d="M24.38,18.86a2,2,0,1,0,2-2,2,2,0,0,0-2,2Zm2-.66a.66.66,0,1,1-.66.66.66.66,0,0,1,.66-.66Zm0,0"/>
        <path class="cls-1" d="M8.57,23.72a.66.66,0,1,0,.1-.85.67.67,0,0,0-.1.85Zm0,0"/>
      </g>
    </g>
  </g>
</svg>
