<svg xmlns="http://www.w3.org/2000/svg" width="55" height="55" viewBox="0 0 55 55">
  <defs>
    <style>
      .cls-1 {
        fill: #fff;
        fill-rule: evenodd;
      }
    </style>
  </defs>
  <title>Asset 27</title>
  <g id="Layer_2" data-name="Layer 2">
    <g id="Layer_7" data-name="Layer 7">
      <path class="cls-1" d="M54.83,24.45a1.79,1.79,0,0,0-1.77-1.35A6.07,6.07,0,0,1,48.9,12.52a1.53,1.53,0,0,0,.17-2.07,27.21,27.21,0,0,0-4.36-4.4,1.53,1.53,0,0,0-2.09.17,6.34,6.34,0,0,1-6.86,1.54,6.11,6.11,0,0,1-3.71-6A1.53,1.53,0,0,0,30.7.18a27.44,27.44,0,0,0-6.19,0,1.53,1.53,0,0,0-1.36,1.57,6.12,6.12,0,0,1-3.77,5.87,6.35,6.35,0,0,1-6.81-1.55,1.53,1.53,0,0,0-2.08-.17,27.33,27.33,0,0,0-4.45,4.4,1.53,1.53,0,0,0,.16,2.09,6.09,6.09,0,0,1,1.54,6.86,6.36,6.36,0,0,1-6,3.72A1.5,1.5,0,0,0,.18,24.3a27.54,27.54,0,0,0,0,6.25A1.82,1.82,0,0,0,2,31.91a6,6,0,0,1,5.66,3.77,6.12,6.12,0,0,1-1.54,6.8,1.53,1.53,0,0,0-.17,2.07,27.29,27.29,0,0,0,4.35,4.4,1.53,1.53,0,0,0,2.09-.17,6.33,6.33,0,0,1,6.86-1.54,6.1,6.1,0,0,1,3.72,6,1.53,1.53,0,0,0,1.35,1.61,27.39,27.39,0,0,0,6.19,0,1.53,1.53,0,0,0,1.36-1.57,6.11,6.11,0,0,1,3.76-5.86,6.35,6.35,0,0,1,6.81,1.55,1.54,1.54,0,0,0,2.08.17,27.4,27.4,0,0,0,4.45-4.4,1.53,1.53,0,0,0-.16-2.09,6.09,6.09,0,0,1-1.54-6.86A6.16,6.16,0,0,1,52.86,32h.34a1.53,1.53,0,0,0,1.61-1.35,27.44,27.44,0,0,0,0-6.25ZM27.54,36.73a9.17,9.17,0,1,1,9.17-9.17,9.18,9.18,0,0,1-9.17,9.17Zm0,0"/>
    </g>
  </g>
</svg>
