<svg xmlns="http://www.w3.org/2000/svg" width="32.14" height="38.69" viewBox="0 0 32.14 38.69">
  <defs>
    <style>
      .cls-1 {
        fill: #006989;
      }
    </style>
  </defs>
  <title>Asset 8</title>
  <g id="Layer_2" data-name="Layer 2">
    <g id="Layer_2-2" data-name="Layer 2">
      <path class="cls-1" d="M4.47,15.11H20.29a.7.7,0,1,0,0-1.4H4.47a.7.7,0,1,0,0,1.4Zm0-4H20.29a.7.7,0,0,0,0-1.41H4.47a.7.7,0,0,0,0,1.41ZM17.24,18a.7.7,0,0,0-.7-.7H4.47a.7.7,0,1,0,0,1.4H16.54A.7.7,0,0,0,17.24,18ZM11.38,20.8H4.47a.7.7,0,1,0,0,1.4h6.91a.7.7,0,0,0,0-1.4ZM9.06,24.35H4.47a.7.7,0,1,0,0,1.4H9.06a.7.7,0,1,0,0-1.4Zm17.21.94L21.4,31l-3.11-2.48a.7.7,0,0,0-.87,1.1l3.64,2.9a.71.71,0,0,0,1-.09l5.31-6.26a.7.7,0,0,0-.08-1A.71.71,0,0,0,26.27,25.29Zm-1.51-5.91v-12a.7.7,0,0,0-.2-.49L18,.21a.71.71,0,0,0-.5-.21H.7A.7.7,0,0,0,0,.7V32.92a.7.7,0,0,0,.7.7h13a9.81,9.81,0,1,0,11-14.24ZM13.12,32.22H1.41V1.41H16.75v6a.7.7,0,0,0,.7.7h5.9V19.12a9.82,9.82,0,0,0-10.84,9.76A9.73,9.73,0,0,0,13.12,32.22Zm9.21,5.06a8.4,8.4,0,1,1,8.41-8.41A8.41,8.41,0,0,1,22.33,37.28Z"/>
    </g>
  </g>
</svg>
