<svg xmlns="http://www.w3.org/2000/svg" width="26.62" height="35" viewBox="0 0 26.62 35">
  <defs>
    <style>
      .cls-1 {
        fill: #ffc700;
      }
    </style>
  </defs>
  <title>Asset 5</title>
  <g id="Layer_2" data-name="Layer 2">
    <g id="Layer_3" data-name="Layer 3">
      <g>
        <path class="cls-1" d="M13.31,17.12c3.89,0,7-3.83,7-8.56s-1-8.56-7-8.56-7,3.83-7,8.56,3.15,8.56,7,8.56Zm0,0"/>
        <path class="cls-1" d="M26.6,29.84c-.13-8.23-1.21-10.58-9.44-12.07a4.93,4.93,0,0,1-3.86,1.48,4.93,4.93,0,0,1-3.86-1.48C1.31,19.24.17,21.55,0,29.57c0,.65,0,.69,0,.61,0,.14,0,.41,0,.87C0,31.05,2,35,13.31,35s13.31-3.95,13.31-3.95c0-.29,0-.5,0-.64a5.67,5.67,0,0,1,0-.57Zm0,0"/>
      </g>
    </g>
  </g>
</svg>
