<svg xmlns="http://www.w3.org/2000/svg" width="228.09" height="228.02" viewBox="0 0 228.09 228.02">
  <defs>
    <style>
      .cls-1 {
        fill: #ffc700;
      }
    </style>
  </defs>
  <title>Asset 3</title>
  <g id="Layer_2" data-name="Layer 2">
    <g id="Layer_3" data-name="Layer 3">
      <g>
        <path class="cls-1" d="M153,83c0,21.54-17.46,47.49-39,47.49s-39-25.94-39-47.49a39,39,0,1,1,78,0Z"/>
        <path class="cls-1" d="M188,195.81c0,2.9-38.75,29-74,29-34.61,0-74-24.14-74-29,0-31.78,42.22-57.54,74-57.54S188,164,188,195.81Z"/>
        <path class="cls-1" d="M114.05,228a114,114,0,1,1,44.36-9A114,114,0,0,1,114.05,228Zm0-218a104,104,0,1,0,104,104h0A104.14,104.14,0,0,0,114.05,10Z"/>
      </g>
    </g>
  </g>
</svg>
