<svg xmlns="http://www.w3.org/2000/svg" width="42.67" height="55" viewBox="0 0 42.67 55">
  <defs>
    <style>
      .cls-1 {
        fill: #fff;
      }
    </style>
  </defs>
  <title>Asset 26</title>
  <g id="Layer_2" data-name="Layer 2">
    <g id="Layer_7" data-name="Layer 7">
      <g>
        <path class="cls-1" d="M14.81,48.44v0a6.52,6.52,0,1,0,13,0v0Zm0,0"/>
        <path class="cls-1" d="M42.15,40.28l-5.87-8.62V20.91a15,15,0,0,0-12-14.66V2.93a2.93,2.93,0,0,0-5.86,0V6.24a15,15,0,0,0-12,14.66V31.66L.51,40.28A3,3,0,0,0,3,44.92H39.7a3,3,0,0,0,2.45-4.63Zm0,0"/>
      </g>
    </g>
  </g>
</svg>
